
<svg xmlns="http://www.w3.org/2000/svg" version="1.1" xmlns:xlink="http://www.w3.org/1999/xlink" preserveAspectRatio="none" x="0px" y="0px" width="342px" height="47px" viewBox="0 0 342 47">
<defs>
<g id="Layer0_0_FILL">
<path fill="#333333" stroke="none" d="
M 293.65 45.1
L 293.65 34.1 279.5 34.1 279.5 45.1 293.65 45.1
M 283.5 40.35
L 283.5 38.8 289.7 38.8 289.7 40.35 283.5 40.35
M 299.6 36.55
L 295.6 36.55 295.6 45.3 304.8 45.3
Q 307.35 45.3 309.2 44.8 311.1 44.3 312.25 43.25 314.55 41.1 314.55 36.05
L 314.55 8.75 302.55 8.75 302.55 34
Q 302.55 35.2 301.95 35.9 301.35 36.55 299.6 36.55
M 307.85 13.15
L 309.25 13.15 309.25 36.2
Q 309.25 38.6 308.15 39.75 307.1 40.9 304.45 40.9
L 300 40.9 300 39.65 304.45 39.65
Q 306.65 39.65 307.2 38.75 307.85 37.9 307.85 36.2
L 307.85 13.15
M 329.25 7.85
Q 326.8 7.85 324.55 8.55 322.35 9.2 320.7 10.55 319 11.9 318.15 13.85 317.2 15.8 317.2 18.4 317.2 20.75 317.95 22.45 318.7 24.25 319.9 25.7 321.05 27.1 322.4 28.2
L 326.85 31.85
Q 327.65 32.6 327.65 33.3 327.65 34.25 327.05 34.7 326.4 35.2 325.1 35.2
L 319.8 34.6 317.3 34 317.3 44.95 323.35 46.05 327.25 46.25
Q 330.7 46.25 333.2 45.35 335.7 44.45 337.35 42.85 338.95 41.3 339.7 39.2 340.5 37.1 340.5 34.7 340.5 32.4 339.75 30.55 339 28.6 337.9 27.15 336.9 25.7 335.6 24.55
L 331.4 21
Q 330.7 20.3 330.7 19.9 330.7 19.35 331 19.1
L 331.75 18.75 332.7 18.6 334.65 18.6 336.65 18.85 336.65 8.6 329.25 7.85
M 332.1 13.2
L 332.1 14.6 329.4 14.45
Q 326.6 14.45 325.35 15.55 324.1 16.55 324.1 18.55 324.1 19.9 324.85 21.1 325.65 22.35 326.9 23.6
L 332.2 28.55
Q 333.45 29.8 334.2 31.3 335 32.7 335 34.25 335 36.2 334.3 37.45 333.65 38.7 332.45 39.55 331.3 40.35 329.85 40.75 328.45 41.1 326.85 41.1
L 323.55 40.85 321.9 40.55 321.9 39.15 326.85 39.65
Q 330 39.65 331.8 38.3 332.7 37.6 333.1 36.65 333.55 35.65 333.55 34.25 333.55 32.85 332.75 31.55 331.95 30.25 330.75 29
L 325.5 24.05
Q 324.25 22.75 323.45 21.45 322.65 20.1 322.65 18.55 322.65 17.1 323.15 16.05 323.65 15.05 324.6 14.35 326.5 13.05 329.45 13.05
L 332.1 13.2
M 190.2 4.1
Q 188.3 2.6 185.55 1.85 182.75 1.1 179.5 1.1
L 162.25 1.1 162.25 45.1 180.2 45.1
Q 183.9 45.1 186.9 44.15 189.9 43.2 192 41.35 194.1 39.55 195.2 37 196.3 34.4 196.3 31.25 196.3 28.45 195.5 26.55 194.65 24.65 193.7 23.4 192.5 21.95 191.05 21 191.95 20.2 192.7 19.05
L 193.8 16.55
Q 194.35 15.05 194.35 12.95 194.35 10 193.25 7.8 192.15 5.55 190.2 4.1
M 185.55 8.45
Q 186.9 9.5 187.55 11.1 188.2 12.65 188.2 14.75 188.2 17.05 187.3 18.55 186.4 20.05 185.3 20.85 184 21.85 182.45 22.3 184.45 22.75 186.1 23.75 187.4 24.7 188.55 26.3 189.75 27.95 189.75 30.65 189.75 34.8 186.95 37.3 185.55 38.55 183.4 39.2 181.25 39.8 178.35 39.8
L 168.85 39.8 168.85 6.35 178.35 6.35
Q 182.95 6.35 185.55 8.45
M 182.1 23.55
Q 180.35 23.1 178.3 23.1
L 170.6 23.1 170.6 38.25 178.3 38.25
Q 182.65 38.25 185.3 36.45 188 34.65 188 30.65 188 28.65 187.25 27.2 186.45 25.75 185.15 24.85 183.85 24 182.1 23.55
M 177.45 27.1
Q 179.95 27.1 181.2 28.05 182.45 29 182.45 30.9 182.45 32.8 181.2 33.8 179.95 34.7 177.45 34.7
L 175.85 34.7 175.85 27.1 177.45 27.1
M 185.95 12
Q 185.45 10.8 184.55 9.8 182.65 7.95 178.35 7.95
L 170.6 7.95 170.6 21.55 178.35 21.55
Q 182.65 21.55 184.55 19.65 186.4 17.75 186.4 14.75 186.4 13.25 185.95 12
M 175.85 11.45
L 177.45 11.45
Q 179.1 11.45 179.95 12.2 180.75 12.95 180.75 14.5 180.75 17.5 177.45 17.5
L 175.85 17.5 175.85 11.45
M 236.25 10.4
Q 233.4 7.55 229.6 5.9 225.8 4.25 221.55 4.25 219.35 4.25 217.3 4.65 215.3 5.05 213.4 5.9 209.55 7.55 206.75 10.4 203.9 13.2 202.25 17.05 201.4 18.95 201 21 200.6 23 200.6 25.15 200.6 27.3 201 29.35 201.4 31.4 202.25 33.3 203.9 37.15 206.75 39.95 209.55 42.8 213.4 44.4 215.3 45.3 217.3 45.7 219.35 46.1 221.55 46.1 225.8 46.1 229.6 44.4 233.4 42.8 236.25 39.95 239.1 37.15 240.75 33.3 241.55 31.4 241.95 29.35 242.45 27.3 242.45 25.15 242.45 20.9 240.75 17.05 239.1 13.2 236.25 10.4
M 232.3 14.35
Q 234.35 16.45 235.6 19.2 236.75 22 236.75 25.15 236.75 28.35 235.6 31.1 234.35 33.9 232.3 36 230.2 38.05 227.45 39.25 224.65 40.45 221.55 40.45 218.3 40.45 215.55 39.25 212.8 38.05 210.65 36 208.6 33.9 207.4 31.1 206.2 28.35 206.2 25.15 206.2 22 207.4 19.2 208.6 16.45 210.65 14.35 212.8 12.3 215.55 11.1 218.3 9.9 221.55 9.9 224.65 9.9 227.45 11.1 230.2 12.3 232.3 14.35
M 231.2 15.45
Q 229.3 13.6 226.85 12.55 224.4 11.45 221.55 11.45 218.65 11.45 216.15 12.55 213.65 13.6 211.8 15.45 209.9 17.35 208.85 19.8 207.75 22.3 207.75 25.15 207.75 28.05 208.85 30.5 209.9 33 211.8 34.9 213.65 36.75 216.15 37.8 218.65 38.9 221.55 38.9 224.4 38.9 226.85 37.8 229.3 36.75 231.2 34.9 233.05 33 234.15 30.5 235.25 28.05 235.25 25.15 235.25 22.3 234.15 19.8 233.05 17.35 231.2 15.45
M 227.4 19.25
Q 228.55 20.4 229.2 21.9 229.85 23.45 229.85 25.15 229.85 26.85 229.2 28.45 228.55 29.95 227.4 31.1 226.3 32.2 224.75 32.9 223.25 33.5 221.55 33.5 219.75 33.5 218.2 32.9 216.75 32.2 215.6 31.1 214.45 29.95 213.8 28.45 213.15 26.85 213.15 25.15 213.15 23.45 213.8 21.9 214.45 20.4 215.6 19.25 216.75 18.1 218.2 17.45 219.75 16.8 221.55 16.8 223.25 16.8 224.75 17.45 226.3 18.1 227.4 19.25
M 267.6 24.45
L 278.2 5.25 264.25 5.25 260.65 11.7 257.05 5.25 243.15 5.25 253.7 24.45 242.4 45.05 256.25 45.05 260.65 37.15 265.05 45.05 278.95 45.05 267.6 24.45
M 267.65 10
L 269.5 10 261.5 24.45 270.25 40.25 268.45 40.25 260.65 26.05 252.8 40.25 251 40.25 259.75 24.45 251.8 10 253.6 10 260.65 22.85 267.65 10
M 58.3 5.25
L 48.7 5.25 33.6 45.05 46.15 45.05 47.45 41.5 59.55 41.5 60.85 45.05 73.4 45.05 58.3 5.25
M 52.35 10
L 54.6 10 66.15 40.25 64.5 40.25 63.35 37.3 43.6 37.3 42.5 40.25 40.8 40.25 52.35 10
M 44.2 35.85
L 62.8 35.85 53.5 11.45 44.2 35.85
M 56.15 32.7
L 50.8 32.7 53.5 25.7 56.15 32.7
M 101.8 21.5
L 102.8 19.2
Q 103.3 17.85 103.3 15.95 103.3 13.3 102.3 11.3 101.3 9.25 99.55 7.95 97.8 6.6 95.35 5.9 92.8 5.25 89.85 5.25
L 74.25 5.25 74.25 45.05 90.5 45.05
Q 93.85 45.05 96.55 44.2 99.25 43.35 101.15 41.65 103.05 40.05 104.05 37.75 105.05 35.35 105.05 32.5 105.05 30 104.35 28.25 103.55 26.55 102.7 25.4 101.6 24.1 100.3 23.25 101.1 22.55 101.8 21.5
M 97.75 17.6
Q 97.75 19.7 96.9 21.05 96.1 22.4 95.1 23.1 93.95 24 92.5 24.45 94.35 24.85 95.85 25.75 97 26.6 98.05 28.05 99.15 29.55 99.15 32 99.15 35.75 96.6 38 95.35 39.15 93.4 39.7 91.45 40.25 88.8 40.25
L 80.2 40.25 80.2 10 88.8 10
Q 93 10 95.35 11.9 96.55 12.85 97.15 14.3 97.75 15.7 97.75 17.6
M 96.85 28.85
Q 96.15 27.55 94.95 26.75 93.8 25.95 92.2 25.55 90.6 25.15 88.75 25.15
L 81.8 25.15 81.8 38.85 88.75 38.85
Q 92.7 38.85 95.1 37.25 97.55 35.6 97.55 32 97.55 30.15 96.85 28.85
M 91.4 29.65
Q 92.5 30.5 92.5 32.2 92.5 33.95 91.4 34.85 90.25 35.65 88 35.65
L 86.55 35.65 86.55 28.75 88 28.75
Q 90.25 28.75 91.4 29.65
M 88.8 11.45
L 81.8 11.45 81.8 23.75 88.8 23.75
Q 92.7 23.75 94.4 22.05 96.1 20.3 96.1 17.6 96.1 16.25 95.7 15.1 95.25 14 94.4 13.1 92.7 11.45 88.8 11.45
M 88 14.6
Q 89.5 14.6 90.25 15.3 91 15.95 91 17.35 91 20.1 88 20.1
L 86.55 20.1 86.55 14.6 88 14.6
M 159.45 34.6
L 148.45 34.6 148.45 5.25 135.2 5.25 135.2 45.05 159.45 45.05 159.45 34.6
M 142.75 38.85
L 156.1 38.85 156.1 40.25 141.15 40.25 141.15 10 142.75 10 142.75 38.85
M 131.2 15.65
L 131.2 5.25 107.7 5.25 107.7 45.05 131.6 45.05 131.6 34.6 120.45 34.6 120.45 30 131 30 131 20.1 120.45 20.1 120.45 15.65 131.2 15.65
M 127.2 10
L 127.2 11.45 115.3 11.45 115.3 24.35 126.6 24.35 126.6 25.75 115.3 25.75 115.3 38.85 127.2 38.85 127.2 40.25 113.7 40.25 113.7 10 127.2 10
M 28.95 4.1
Q 27.05 2.6 24.3 1.85 21.5 1.1 18.25 1.1
L 1 1.1 1 45.1 18.95 45.1
Q 22.65 45.1 25.65 44.15 28.65 43.2 30.75 41.35 32.85 39.55 33.95 37 35.05 34.4 35.05 31.25 35.05 28.45 34.25 26.55 33.4 24.65 32.45 23.4 31.25 21.95 29.8 21 30.7 20.2 31.45 19.05
L 32.55 16.55
Q 33.1 15.05 33.1 12.95 33.1 10 32 7.8 30.9 5.55 28.95 4.1
M 24.3 8.45
Q 25.65 9.5 26.3 11.1 26.95 12.65 26.95 14.75 26.95 17.05 26.05 18.55 25.15 20.05 24.05 20.85 22.75 21.85 21.2 22.3 23.2 22.75 24.85 23.75 26.15 24.7 27.3 26.3 28.5 27.95 28.5 30.65 28.5 34.8 25.7 37.3 24.3 38.55 22.15 39.2 20 39.8 17.1 39.8
L 7.6 39.8 7.6 6.35 17.1 6.35
Q 21.7 6.35 24.3 8.45
M 17.05 23.1
L 9.35 23.1 9.35 38.25 17.05 38.25
Q 21.4 38.25 24.05 36.45 26.75 34.65 26.75 30.65 26.75 28.65 26 27.2 25.2 25.75 23.9 24.85 22.6 24 20.85 23.55 19.1 23.1 17.05 23.1
M 16.2 34.7
L 14.6 34.7 14.6 27.1 16.2 27.1
Q 18.7 27.1 19.95 28.05 21.2 29 21.2 30.9 21.2 32.8 19.95 33.8 18.7 34.7 16.2 34.7
M 24.7 12
Q 24.2 10.8 23.3 9.8 21.4 7.95 17.1 7.95
L 9.35 7.95 9.35 21.55 17.1 21.55
Q 21.4 21.55 23.3 19.65 25.15 17.75 25.15 14.75 25.15 13.25 24.7 12
M 14.6 11.45
L 16.2 11.45
Q 17.85 11.45 18.7 12.2 19.5 12.95 19.5 14.5 19.5 17.5 16.2 17.5
L 14.6 17.5 14.6 11.45 Z"/>
</g>
</defs>

<g transform="matrix( 1, 0, 0, 1, 0,0) ">
<use xlink:href="#Layer0_0_FILL"/>
</g>
</svg>
