
<svg xmlns="http://www.w3.org/2000/svg" version="1.1" xmlns:xlink="http://www.w3.org/1999/xlink" preserveAspectRatio="none" x="0px" y="0px" width="32px" height="32px" viewBox="0 0 32 32">
<defs>
<g id="Layer0_0_FILL">
<path fill="#3366FF" stroke="none" d="
M 22.4 10.5
Q 22.7 9.3 23.45 8.6 23.1 8.5 22.55 8.55 21.25 8.65 20.4 9.25 19.4 9.95 18.85 11.05 18.45 10.95 18 10.85 17.8 10.25 17.55 9.8 16.95 8.75 15.8 8.15 15.3 7.85 14.55 7.8 13.45 7.65 12.5 7.85 11.2 8.15 10.15 8.85 9.15 9.5 8.35 10.4 7.6 11.3 7.1 12.45 6.6 13.7 6.55 15.25 6.55 16.1 6.6 16.7 6.8 18.2 7.3 19.45 7.85 20.55 8.5 21.55 9.15 22.5 10.25 23.15 10.5 23.3 10.9 23.35 11.05 23.35 11.3 23.3 12.1 23.1 12.4 22.4 12.5 22.7 12.65 23 12.75 23.3 12.85 23.6 13 24.2 13.6 24.35 14.1 24.5 14.35 24.3 14.7 24.45 15.1 24.45 15.85 24.5 16.15 24 17.55 24.2 17.8 23.05
L 17.85 23.05
Q 18.5 22.85 18.35 21.85 18.1 21.35 17.85 20.85 17.55 20.4 17.35 19.9 17.7 20.1 18.25 20.2 19.15 20.4 19.5 19.85 19.8 20.1 20.4 20.2 21.55 20.35 22 19.6 22.35 19.7 22.75 19.6 23.35 19.55 23.8 19.3 24.25 19.05 24.2 18.45 25.15 18.4 25.45 17.7 25.7 17.2 25.55 16.6 25.5 16.1 25.15 15.85 24.45 15.4 23.55 15.15 22.2 14.8 20.75 14.6 19.3 14.35 17.8 14.2 17.9 13.95 18 13.7
L 18.05 13.7
Q 18.3 13.55 18.65 13.4
L 18.65 13.45
Q 18.8 13.75 18.9 13.95 20.1 14 20.9 13.55 21.9 13 22.2 11.55 22.35 11.05 22.4 10.5
M 20.95 9.55
Q 21.6 9.1 22.55 9.05 22 9.7 21.85 10.8 21.7 11.75 21.35 12.45 21.25 12.55 21.2 12.6 20.7 12.25 20.2 11.8 20.7 10.65 21.55 9.8 21.6 9.75 21.6 9.7 20.55 10.3 20 11.45 19.95 11.5 19.95 11.65 19.65 11.45 19.3 11.3 19.9 10.15 20.95 9.55
M 22.6 17.75
L 22.6 17.8
Q 22.65 17.85 22.7 18 22.7 18.1 22.7 18.2 22.5 18.6 22 18.75 21.45 18.85 20.95 18.7 21.05 19.1 20.8 19.25 20.6 19.45 20.25 19.45 19.5 19.5 19 19.15
L 19 19.2
Q 18.85 19.5 18.5 19.6 17.45 19.75 16.9 19.2 17.1 19.7 16.9 20.15 16.4 21.35 15.3 21.95 14.75 22.3 13.9 22.25 12.3 22.2 11.2 21.65 10.05 21.1 9.2 20.25 8.4 19.45 7.9 18.25 7.85 18.15 7.75 18 7.3 16.8 7.35 15.05 7.5 13.55 8 12.4 8.6 11.25 9.45 10.4 10.25 9.55 11.4 9.05 12.35 8.6 13.8 8.6 14.85 8.55 15.5 8.9 16.6 9.55 17.1 10.7 17.15 10.75 17.1 10.8 16.45 11.4 16.35 12.5 16.3 13.1 16.45 13.55 16.6 14 16.8 14.35 16.2 15.35 15.05 15.95 14.35 16.25 13.55 16.5 15.25 16.5 16.3 15.85 16.55 15.75 16.7 15.6 17.05 15.3 17.25 14.95 18.85 15.1 20.25 15.3 21.7 15.6 23.05 15.9 23.15 15.9 23.2 15.95 23.35 15.95 23.45 15.95 24.15 16.1 24.25 16.7 23.35 16.6 22.4 16.55 20.9 16.35 19.35 16.2 18.95 16.15 18.5 16.15 19.95 16.4 21.35 16.7 21.4 16.7 21.45 16.7
L 21.5 16.7
Q 22.85 17 24.2 17.3 24.05 17.5 23.85 17.6 23.35 17.95 22.6 17.75
M 17.3 11.3
Q 18.1 11.3 18.7 11.55 19.75 11.95 20.45 12.7 19.95 12.45 19.1 12.45 18.6 12.4 18.25 12.6 17.9 12.8 17.25 12.75 17.1 12.75 16.95 12.75
L 16.9 12.75
Q 17.25 13 17.9 12.85 18.25 12.8 18.5 12.75
L 18.5 12.8
Q 18.5 13 18.3 13 18.2 13 18.1 13.05 17.55 13.3 17.05 13.6 16.75 13.2 16.8 12.4 16.95 11.75 17.3 11.3
M 19.55 12.7
L 19.6 12.7
Q 19.6 12.85 19.55 13 19.65 12.9 19.75 12.75 20.3 12.8 20.75 13 20.2 13.4 19.25 13.45
L 19.2 13.45
Q 19 13.1 19 12.6 19.3 12.6 19.55 12.7
M 14.4 11.15
Q 14.25 11.05 14 11.05 13.1 11.1 12.9 11.85 12.85 12.75 13.55 12.95 14.05 13.1 14.4 12.9 14.55 12.8 14.65 12.75 14.9 12.45 14.85 11.9 14.8 11.4 14.4 11.15
M 14.2 11.3
Q 14.4 11.3 14.5 11.5 14.4 11.95 13.9 11.95 13.4 11.95 13.35 11.5 13.6 11.15 14.2 11.3 Z"/>
</g>
</defs>

<g transform="matrix( 1, 0, 0, 1, 0,0) ">
<use xlink:href="#Layer0_0_FILL"/>
</g>
</svg>
