
<svg xmlns="http://www.w3.org/2000/svg" version="1.1" xmlns:xlink="http://www.w3.org/1999/xlink" preserveAspectRatio="none" x="0px" y="0px" width="32px" height="32px" viewBox="0 0 32 32">
<defs>
<g id="Layer0_0_FILL">
<path fill="#FF0066" stroke="none" d="
M 24.4 11
Q 23.1 8.75 20.85 7.45 18.6 6.15 15.95 6.15 13.25 6.15 11.05 7.45 8.8 8.75 7.5 11 6.15 13.25 6.15 15.95 6.15 19.1 8 21.65 9.9 24.2 12.85 25.2 13.2 25.25 13.35 25.15 13.55 24.95 13.55 24.7 13.5 24.5 13.5 24.05
L 13.5 22.95 11.65 22.95
Q 11.2 22.8 10.75 22.55 10.4 22.25 10.2 21.75
L 10.1 21.45 9.7 20.8
Q 9.4 20.45 9.15 20.35
L 9.05 20.25 8.85 20.1 8.75 19.9
Q 8.7 19.85 8.8 19.75
L 9.45 19.75 10.1 20.05
Q 10.45 20.35 10.7 20.7 11 21.25 11.4 21.5 11.85 21.8 12.25 21.8
L 12.95 21.75 13.55 21.55
Q 13.65 20.7 14.15 20.2
L 12.85 20
Q 12.3 19.85 11.65 19.5 11.05 19.15 10.6 18.65 10.25 18.15 9.95 17.3 9.7 16.5 9.7 15.4 9.7 13.85 10.7 12.75 10.25 11.65 10.8 10.2 11.2 10.05 11.9 10.35
L 12.95 10.85 13.5 11.2
Q 14.7 10.85 15.95 10.85 17.2 10.85 18.35 11.2
L 18.85 10.85 20.05 10.35
Q 20.75 10.05 21.05 10.2 21.65 11.65 21.2 12.75 22.2 13.85 22.2 15.4 22.2 16.5 21.9 17.35 21.7 18.15 21.25 18.65 20.85 19.15 20.2 19.5 19.6 19.85 19 20
L 17.75 20.2
Q 18.35 20.8 18.35 22.05
L 18.35 24.7
Q 18.35 24.95 18.5 25.15 18.7 25.25 19 25.2 22 24.2 23.85 21.65 25.7 19.1 25.7 15.95 25.7 13.25 24.4 11 Z"/>
</g>
</defs>

<g transform="matrix( 1, 0, 0, 1, 0,0) ">
<use xlink:href="#Layer0_0_FILL"/>
</g>
</svg>
